# xmcd
# Track frame offsets:
# 150
# 18766
# 40655
# 59582
# 77314
# 97533
# 114854
# 138630
# 154844
# 169650
#
# Disc length: 2460 seconds
# Revision: 0
# Processed by: cddbd v1.5.2PL0 Copyright (c) Steve Scherf et al.
# Submitted via: VisiTrax 2.11.2.271 - For more info visit www.synapsa.com
#
DISCID=67099a0a
DTITLE=Edwards, Jeremy and the Dust Radio Band - Russian Doll
DYEAR=2012
DGENRE=
TTITLE0=Edwards, Jeremy and the Dust Radio Band - Holy Gound
TTITLE1=Edwards, Jeremy - Sing
TTITLE2=Edwards. Jermey - Between Hell and the Highway
TTITLE3=Edwards, Jeremy - Bring the Family Around
TTITLE4=Edwards, Jeremy - Joseph's Creek
TTITLE5=Edwards, Jeremy - Russian Doll
TTITLE6=Edwards, Jeremy - Misery Loves Company
TTITLE7=Edwards, Jeremy - Roadgang Song
TTITLE8=Edwards, Jeremy - Better Than Me
TTITLE9=Edwards, Jeremy - Pulled an Angel Down
EXTD=
EXTT0=
EXTT1=
EXTT2=
EXTT3=
EXTT4=
EXTT5=
EXTT6=
EXTT7=
EXTT8=
EXTT9=
PLAYORDER=
